<?xml version="1.0" encoding="utf-8"?><svg xml:space="preserve" viewBox="0 0 100 100" y="0" x="0" xmlns="http://www.w3.org/2000/svg" id="Layer_1" version="1.1" width="47px" height="47px" xmlns:xlink="http://www.w3.org/1999/xlink" style="width:100%;height:100%;background-size:initial;background-repeat-y:initial;background-repeat-x:initial;background-position-y:initial;background-position-x:initial;background-origin:initial;background-image:initial;background-color:rgb(255, 255, 255);background-clip:initial;background-attachment:initial;animation-play-state:paused" ><g class="ldl-scale" style="transform-origin:50% 50%;transform:rotate(0deg) scale(0.8, 0.8);animation-play-state:paused" ><path stroke-miterlimit="10" stroke-width="3.5" stroke="#333" fill="#f47e5f" d="M27.346 81.5h-7.567a2.467 2.467 0 0 1-2.467-2.467V62.967a2.467 2.467 0 0 1 2.467-2.467h7.567a2.467 2.467 0 0 1 2.467 2.467v16.067a2.467 2.467 0 0 1-2.467 2.466z" style="stroke:rgb(51, 51, 51);fill:rgb(244, 126, 95);animation-play-state:paused" ></path>
<path stroke-miterlimit="10" stroke-width="3.5" stroke="#333" fill="#f47e5f" d="M44.971 81.5h-7.567a2.467 2.467 0 0 1-2.467-2.467V41.967a2.467 2.467 0 0 1 2.467-2.467h7.567a2.467 2.467 0 0 1 2.467 2.467v37.067a2.467 2.467 0 0 1-2.467 2.466z" style="stroke:rgb(51, 51, 51);fill:rgb(244, 126, 95);animation-play-state:paused" ></path>
<path stroke-miterlimit="10" stroke-width="3.5" stroke="#333" fill="#f47e5f" d="M62.596 81.5h-7.567a2.467 2.467 0 0 1-2.467-2.467v-30.89a2.467 2.467 0 0 1 2.467-2.467h7.567a2.467 2.467 0 0 1 2.467 2.467v30.89a2.468 2.468 0 0 1-2.467 2.467z" style="stroke:rgb(51, 51, 51);fill:rgb(244, 126, 95);animation-play-state:paused" ></path>
<path stroke-miterlimit="10" stroke-width="3.5" stroke="#333" fill="#f47e5f" d="M79.867 81.5h-6.859a2.821 2.821 0 0 1-2.821-2.821V21.321a2.821 2.821 0 0 1 2.821-2.821h6.859a2.821 2.821 0 0 1 2.821 2.821V78.68a2.821 2.821 0 0 1-2.821 2.82z" style="stroke:rgb(51, 51, 51);fill:rgb(244, 126, 95);animation-play-state:paused" ></path>
<path stroke-width="3.5" stroke-miterlimit="10" stroke="#000" opacity=".2" d="M27.346 60.5h-3a2.467 2.467 0 0 1 2.467 2.467v16.067a2.467 2.467 0 0 1-2.467 2.467h3a2.467 2.467 0 0 0 2.467-2.467V62.967a2.468 2.468 0 0 0-2.467-2.467z" style="stroke:rgb(0, 0, 0);animation-play-state:paused" ></path>
<path stroke-width="3.5" stroke-miterlimit="10" stroke="#000" opacity=".2" d="M44.971 39.5h-3a2.467 2.467 0 0 1 2.467 2.467v37.067a2.467 2.467 0 0 1-2.467 2.467h3a2.467 2.467 0 0 0 2.467-2.467V41.967a2.468 2.468 0 0 0-2.467-2.467z" style="stroke:rgb(0, 0, 0);animation-play-state:paused" ></path>
<path stroke-width="3.5" stroke-miterlimit="10" stroke="#000" opacity=".2" d="M62.596 45.676h-3a2.467 2.467 0 0 1 2.467 2.467v30.89a2.467 2.467 0 0 1-2.467 2.467h3a2.467 2.467 0 0 0 2.467-2.467v-30.89a2.468 2.468 0 0 0-2.467-2.467z" style="stroke:rgb(0, 0, 0);animation-play-state:paused" ></path>
<path stroke-width="3.5" stroke-miterlimit="10" stroke="#000" opacity=".2" d="M79.867 18.5h-3a2.821 2.821 0 0 1 2.821 2.821V78.68a2.821 2.821 0 0 1-2.821 2.821h3a2.821 2.821 0 0 0 2.821-2.821V21.321a2.822 2.822 0 0 0-2.821-2.821z" style="stroke:rgb(0, 0, 0);animation-play-state:paused" ></path>
<path d="M75 37.5v1.167" stroke-miterlimit="10" stroke-width="3.5" stroke-linecap="round" stroke="#fff" fill="none" style="stroke:rgb(255, 255, 255);animation-play-state:paused" ></path>
<path d="M75 23v9.167" stroke-miterlimit="10" stroke-width="3.5" stroke-linecap="round" stroke="#fff" fill="none" style="stroke:rgb(255, 255, 255);animation-play-state:paused" ></path>
<path d="M57 64.5v1.167" stroke-miterlimit="10" stroke-width="3.5" stroke-linecap="round" stroke="#fff" fill="none" style="stroke:rgb(255, 255, 255);animation-play-state:paused" ></path>
<path d="M57 50v9.167" stroke-miterlimit="10" stroke-width="3.5" stroke-linecap="round" stroke="#fff" fill="none" style="stroke:rgb(255, 255, 255);animation-play-state:paused" ></path>
<path d="M39.5 58.5v1.167" stroke-miterlimit="10" stroke-width="3.5" stroke-linecap="round" stroke="#fff" fill="none" style="stroke:rgb(255, 255, 255);animation-play-state:paused" ></path>
<path d="M39.5 44v9.167" stroke-miterlimit="10" stroke-width="3.5" stroke-linecap="round" stroke="#fff" fill="none" style="stroke:rgb(255, 255, 255);animation-play-state:paused" ></path>
<path d="M22 73.188v.979" stroke-miterlimit="10" stroke-width="3.5" stroke-linecap="round" stroke="#fff" fill="none" style="stroke:rgb(255, 255, 255);animation-play-state:paused" ></path>
<path d="M22 65v3.125" stroke-miterlimit="10" stroke-width="3.5" stroke-linecap="round" stroke="#fff" fill="none" style="stroke:rgb(255, 255, 255);animation-play-state:paused" ></path>
<path stroke-miterlimit="10" stroke-width="3.5" stroke-linecap="round" stroke="#333" fill="none" d="M10 78.485c4.481.244 8.588-2.438 11.497-5.623 2.909-3.186 5.018-6.956 7.989-10.091 2.971-3.135 7.215-5.686 11.675-5.213 7.249.769 11.205 8.714 18.095 10.951 5.157 1.674 10.835-.198 15.683-2.539 4.848-2.341 9.626-5.233 15.06-5.73" style="stroke:rgb(51, 51, 51);animation-play-state:paused" ></path>
<metadata xmlns:d="https://loading.io/stock/" style="animation-play-state:paused" ><d:name style="animation-play-state:paused" >statistics</d:name>


<d:tags style="animation-play-state:paused" >statistics,chart,data visualization,mathematics,calculus,probability,census,data</d:tags>


<d:license style="animation-play-state:paused" >by</d:license>


<d:slug style="animation-play-state:paused" >444aav</d:slug></metadata></g><!-- generated by https://loading.io/ --></svg>